<?xml version="1.0" encoding="utf-8"?>
<!-- Generator: Adobe Illustrator 16.0.0, SVG Export Plug-In . SVG Version: 6.00 Build 0)  -->
<!DOCTYPE svg PUBLIC "-//W3C//DTD SVG 1.1//EN" "http://www.w3.org/Graphics/SVG/1.1/DTD/svg11.dtd">
<svg version="1.1" id="Solar_System" xmlns="http://www.w3.org/2000/svg" xmlns:xlink="http://www.w3.org/1999/xlink" x="0px"
	 y="0px" width="512px" height="512px" viewBox="0 0 512 512" enable-background="new 0 0 512 512" xml:space="preserve">
<circle id="Background" fill="#323653" cx="256" cy="256" r="255.943"/>
<g id="Shadow">
	<path opacity="0.1" d="M275.503,382.924l-43.785,50.801l73.088,73.505c3.134-0.611,6.269-1.262,9.404-1.994
		c21.697-5.067,42.096-12.762,60.946-22.658L275.503,382.924z"/>
	<path opacity="0.1" d="M291.688,509.438l-65.967-65.023l-9.015,8.679L114.29,351.166l-5.068,8.77l151.992,151.992
		C271.312,511.712,281.482,510.887,291.688,509.438z"/>
	<path opacity="0.1" d="M439.95,203.42l71.368,71.368c0.697-9.537,0.846-19.176,0.453-28.875l-58.912-58.912L439.95,203.42z"/>
	<path opacity="0.1" d="M290.778,203.109l-74.397,93l179.632,174.219c33.062-21.603,60.318-50.417,80.086-83.719L290.778,203.109z"
		/>
</g>
<g id="Stars_8_">
	<g>
		<path fill="#FFFFFF" d="M170.079,141.82c0.789,0.742,0.889,1.979,0.225,2.764c-0.665,0.784-1.844,0.816-2.633,0.072
			c-0.789-0.745-0.889-1.981-0.226-2.762C168.111,141.109,169.29,141.077,170.079,141.82z"/>
		<polygon fill="#FFFFFF" points="165.521,140.081 168.617,143.541 172.227,146.394 169.132,142.936 		"/>
		<polygon fill="#FFFFFF" points="166.049,146.565 169.178,143.525 171.698,139.91 168.568,142.952 		"/>
	</g>
	<g>
		<path fill="#FFFFFF" d="M329.766,24.224c0.972,0.915,1.095,2.438,0.277,3.404c-0.819,0.965-2.27,1.004-3.242,0.088
			c-0.972-0.915-1.095-2.438-0.278-3.399C327.344,23.349,328.795,23.31,329.766,24.224z"/>
		<polygon fill="#FFFFFF" points="324.154,22.083 327.966,26.345 332.412,29.857 328.6,25.598 		"/>
		<polygon fill="#FFFFFF" points="324.804,30.068 328.657,26.324 331.762,21.873 327.906,25.618 		"/>
	</g>
	<g>
		<path fill="#FFFFFF" d="M97.041,95.64c0.789,0.743,0.888,1.979,0.225,2.764c-0.665,0.784-1.844,0.816-2.633,0.073
			c-0.789-0.745-0.89-1.981-0.226-2.762C95.073,94.93,96.252,94.898,97.041,95.64z"/>
		<polygon fill="#FFFFFF" points="92.484,93.902 95.578,97.363 99.189,100.214 96.093,96.756 		"/>
		<polygon fill="#FFFFFF" points="93.011,100.386 96.14,97.346 98.66,93.731 95.53,96.772 		"/>
	</g>
	<g>
		<path fill="#FFFFFF" d="M26.613,225.467c0.79,0.742,0.889,1.979,0.226,2.764c-0.665,0.784-1.844,0.816-2.634,0.073
			c-0.788-0.745-0.889-1.981-0.226-2.762C24.646,224.756,25.824,224.724,26.613,225.467z"/>
		<polygon fill="#FFFFFF" points="22.056,223.729 25.151,227.188 28.761,230.041 25.666,226.583 		"/>
		<polygon fill="#FFFFFF" points="22.583,230.213 25.712,227.172 28.233,223.558 25.103,226.598 		"/>
	</g>
	<g>
		<path fill="#E2DDEE" d="M378.976,462.031c2.225,2.093,2.504,5.585,0.641,7.79c-1.884,2.212-5.201,2.309-7.434,0.208
			c-2.225-2.094-2.511-5.589-0.637-7.803C373.421,460.021,376.754,459.935,378.976,462.031z"/>
		<polygon fill="#E2DDEE" points="366.117,457.125 374.853,466.876 385.036,474.928 376.308,465.179 		"/>
		<polygon fill="#E2DDEE" points="367.61,475.419 376.443,466.843 383.547,456.642 374.721,465.225 		"/>
	</g>
	<g>
		<path fill="#E2DDEE" d="M503.327,258.096c2.228,2.092,2.505,5.577,0.631,7.787c-1.866,2.22-5.195,2.312-7.426,0.212
			c-2.229-2.092-2.507-5.581-0.632-7.788C497.771,256.091,501.103,255.99,503.327,258.096z"/>
		<polygon fill="#E2DDEE" points="490.473,253.197 499.208,262.952 509.389,271.001 500.657,261.232 		"/>
		<polygon fill="#E2DDEE" points="491.964,271.485 500.791,262.899 507.898,252.713 499.075,261.288 		"/>
	</g>
</g>
<g id="Solar_System_1_">
	<g>
		<path fill="#F2F2F2" d="M281.171,315.97c-37.657,23.33-76.026,40.503-108.04,48.354c-32.368,7.938-54.495,5.369-62.304-7.235
			c-7.809-12.604-0.256-33.56,21.266-59.007c21.285-25.168,53.747-51.877,91.405-75.207c37.658-23.329,76.027-40.502,108.041-48.354
			c32.368-7.939,54.494-5.37,62.303,7.234c7.81,12.604,0.258,33.561-21.266,59.008C351.291,265.932,318.83,292.641,281.171,315.97z
			 M224.55,224.575c-37.483,23.223-69.777,49.787-90.931,74.798c-20.917,24.731-28.408,44.855-21.092,56.664
			c7.315,11.808,28.669,14.062,60.128,6.346c31.814-7.804,69.979-24.891,107.463-48.112c37.484-23.223,69.778-49.786,90.932-74.798
			c20.917-24.732,28.407-44.856,21.093-56.664c-7.315-11.808-28.671-14.062-60.129-6.345
			C300.199,184.266,262.035,201.353,224.55,224.575z"/>
	</g>
	<g>
		<path fill="#F2F2F2" d="M301.643,338.57c-49.124,30.434-99.244,52.717-141.129,62.744c-42.237,10.111-71.171,6.523-81.472-10.104
			c-10.301-16.627-0.63-44.132,27.231-77.447c27.629-33.038,69.898-67.993,119.022-98.426
			c49.125-30.434,99.245-52.717,141.13-62.745c42.236-10.111,71.169-6.523,81.471,10.104c10.301,16.627,0.631,44.132-27.23,77.448
			C393.036,273.183,350.766,308.138,301.643,338.57z M226.348,217.036C125.592,279.457,60.272,357.119,80.741,390.157
			c20.469,33.039,119.092,9.135,219.848-53.286C401.346,274.45,466.664,196.788,446.194,163.75
			C425.727,130.71,327.104,154.615,226.348,217.036z"/>
	</g>
	<g>
		<path fill="#F2F2F2" d="M474.897,248.25c14.504-18.268,24.786-35.268,30.716-50.49c-0.265-1.135-0.556-2.257-0.835-3.385
			c-18.082,50.237-85.338,119.148-177.429,176.201c-92.117,57.067-183.793,86.603-236.819,80.4c0.897,0.762,1.802,1.514,2.708,2.263
			c16.27,1.469,36.07-0.17,58.882-5.021c52.726-11.211,115.331-38.182,176.282-75.943
			C389.354,334.514,441.382,290.468,474.897,248.25z"/>
		<path fill="#F2F2F2" d="M79.365,330.779c-20.237,25.49-32.273,48.52-35.694,67.677c0.539,0.805,1.075,1.611,1.622,2.409
			c7.452-50.783,79.159-128.936,181.619-192.411c102.462-63.478,204.37-92.884,253.158-76.94c-0.472-0.849-0.962-1.685-1.442-2.528
			c-18.677-5.466-44.654-4.943-76.485,1.825c-52.727,11.211-115.332,38.183-176.284,75.943
			C164.908,244.515,112.881,288.562,79.365,330.779z"/>
	</g>
	<g id="Sun_1_">
		<path fill="#F05F33" d="M302.579,183.726c-11.595,5.406-21.48,9.544-30.362,12.359c0.706-9.294,2.476-19.857,5.088-32.387
			c-8.761,9.513-16.401,17.15-23.62,23.156c-2.972-8.905-5.442-19.424-7.885-32.125c-4.403,12.11-8.493,22.077-12.821,30.382
			c-6.139-7.071-12.437-15.811-19.538-26.562c0.576,12.827,0.625,23.569-0.178,32.879c-8.35-4.188-17.481-9.851-28.111-17.054
			c5.41,11.597,9.543,21.477,12.356,30.361c-9.291-0.704-19.856-2.475-32.381-5.091c9.508,8.765,17.146,16.407,23.151,23.624
			c-8.906,2.971-19.423,5.444-32.122,7.882c12.108,4.407,22.073,8.498,30.38,12.824c-7.072,6.14-15.813,12.435-26.565,19.537
			c12.829-0.574,23.571-0.624,32.879,0.177c-4.187,8.352-9.849,17.48-17.051,28.114c11.594-5.412,21.476-9.548,30.36-12.358
			c-0.708,9.294-2.476,19.856-5.09,32.384c8.763-9.51,16.403-17.148,23.622-23.152c2.972,8.905,5.442,19.425,7.881,32.123
			c4.407-12.108,8.497-22.075,12.825-30.381c6.138,7.07,12.436,15.812,19.535,26.563c-0.575-12.827-0.622-23.571,0.179-32.882
			c8.353,4.189,17.482,9.852,28.114,17.055c-5.41-11.597-9.543-21.478-12.358-30.361c9.29,0.705,19.857,2.476,32.382,5.089
			c-9.51-8.765-17.146-16.403-23.149-23.621c8.907-2.972,19.423-5.439,32.121-7.884c-12.11-4.405-22.075-8.495-30.381-12.822
			c7.071-6.139,15.813-12.436,26.563-19.535c-12.827,0.574-23.569,0.623-32.877-0.179"/>
		<path fill="#FDBF55" d="M244.122,175.811c34.218,2.724,59.746,32.672,57.021,66.886c-2.726,34.217-32.672,59.747-66.889,57.023
			c-34.214-2.726-59.744-32.675-57.018-66.891C179.96,198.614,209.908,173.085,244.122,175.811z"/>
		<path opacity="0.1" d="M198.824,190.504c11.018-7.339,24.491-11.171,38.716-10.039c33.646,2.679,58.752,32.126,56.071,65.776
			c-1.821,22.88-16.025,41.808-35.511,50.738c23.31-7.455,40.979-28.377,43.042-54.283c2.725-34.214-22.803-64.162-57.021-66.886
			C226.992,174.446,210.934,180.167,198.824,190.504z"/>
	</g>
	<g id="Earth_1_">
		<path fill="#49ADE1" d="M281.871,390.459c9.752,15.742,4.897,36.41-10.845,46.164c-15.743,9.751-36.411,4.896-46.163-10.847
			c-9.752-15.74-4.898-36.409,10.844-46.161C251.451,369.861,272.118,374.719,281.871,390.459z"/>
		<path fill="#FAB16A" d="M253.621,410.021l-1.062-3.204c0,0-1.351,1.014-1.882,1.165c-1.179,0.332-1.463-1.278-4.889,0.338
			c-0.602,0.285-4.948,5.757-5.311,5.981c-0.365,0.226-0.503,0.815-2.777,1.216s-4.795-1.231-4.958-2.308
			c-0.162-1.075-1.02-1.24-1.003-1.755c0.017-0.513-1.292-7.797-2.06-8.614c-0.806-0.857-4.1-2.294-4.1-2.294l-4.494-1.491l0,0
			c-2.371,8.457-1.435,17.812,3.311,25.946c0,0,1.253-1.413,1.479-1.99c0.165-0.428,0.166-1.627,0.611-1.725
			c0.695-0.151,1.832,1.892,1.953,2.067c1.958,2.822,3.956,2.121,5.105,1.459c1.134-0.654,1.417-5.037,1.417-5.037l0.518-1.875
			c0,0-0.135-0.254,0.615-0.382c0.75-0.128,2.145,0.225,2.145,0.225s-0.07,1.515,0.78,0.987c0.849-0.527,1.7-1.054,1.7-1.054
			s0.91,0.655,1.089,0.944c0.178,0.288,1.145,1.034,1.493,1.324c0.347,0.287,0.886,1.97,0.886,1.97l1.053,1.7l0.602,0.971
			c0,0-0.035,1.03,0.677,1.094c0.711,0.063,1.89,0.34,1.89,0.34l3.633-0.104l3.035,2.458l-0.941,2.188l3.377,5.45l0.454,5.327
			l1.409-0.224c0,0,0,0,0.001-0.001l0.923-4.31l-0.226-3.894l1.468-3.598l2.378-4.163l-1.791-6.282c0,0-2.873-7.379-4.249-7.702
			C256.501,410.841,253.621,410.021,253.621,410.021z"/>
		<path fill="#FAB16A" d="M280.334,395.953c0,0-0.866-2.695-0.689-2.314c0.177,0.382,0.177,0.382,0.177,0.382l-0.749,0.038
			l-0.741,0.049l0.461,1.597c0,0,0.825-1.29,1.129-1.228c0.304,0.062,0.825-1.649-0.061-2.026c-0.888-0.381-1.449-0.543-1.449-0.543
			s-1.41-4.396-1.959-2.651c-0.548,1.74-0.278,1.259-0.548,1.74c-0.269,0.484-1.21,0.934-1.21,0.934l-0.854-1.372l0.031-0.993
			c0,0-0.63-1.229,0.453-0.49c1.085,0.737,1.193,1.502,2.196,2.021c1.004,0.518,2.551,0.208,2.186-0.502
			c-0.143-0.278-0.113-0.633-0.123-1.006c-0.012-0.579-0.116-1.2-1.09-1.655c-1.604-0.746-0.13-0.411-2.371-0.575
			c-2.238-0.163-3.159,0.45-3.159,0.45l-1.519,0.502l3.852,0.029l0.991,0.266l0.726-0.5c0,0,0.687-0.171,0.829-0.038
			c0.143,0.131,1.205,1.182,1.205,1.182l1.807,2.539l1.6,1.037l1.77,1.334c0,0,0.355,0.477-0.199,0.694
			c-0.555,0.22-0.236,0.734-1.208,0.64C280.843,395.398,280.334,395.953,280.334,395.953z"/>
		<path fill="#FAB16A" d="M235.084,413.156c0,0,0.451-1.774,0.421-1.509c-0.03,0.265-0.03,0.265-0.03,0.265l-0.483-0.166
			l-0.48-0.158l-0.298,1.035c0,0,0.988-0.537,1.156-0.424c0.168,0.112,1.123-0.745,0.708-1.185c-0.414-0.44-0.705-0.674-0.705-0.674
			s0.738-2.892-0.248-2.023c-0.985,0.869-0.639,0.657-0.985,0.869c-0.346,0.211-1.1,0.232-1.1,0.232l-0.029-1.006l0.386-0.564
			c0,0,0.058-0.866,0.464-0.17c0.406,0.698,0.191,1.167,0.628,1.719c0.438,0.55,1.518,0.76,1.552,0.259
			c0.012-0.198,0.161-0.396,0.293-0.613c0.205-0.334,0.369-0.72-0.073-1.226c-0.728-0.835,0.069-0.271-1.27-0.927
			c-1.34-0.657-2.14-0.532-2.14-0.532l-1.134-0.094l2.396,0.984l0.522,0.401l0.637-0.106c0,0,0.492,0.073,0.533,0.187
			c0.042,0.11,0.317,0.982,0.317,0.982l0.193,1.917l0.621,1.002l0.613,1.213c0,0,0.047,0.363-0.38,0.351
			c-0.427-0.013-0.417,0.364-0.991,0.067C235.606,412.964,235.084,413.156,235.084,413.156z"/>
		<path fill="#FAB16A" d="M227.06,399.629c0,0,0.032,0.866,0.509,0.821c0.478-0.042,1.571-0.091,1.571-0.091
			s-1.005-1.402-0.903-1.46c0.1-0.059-0.063-0.085-0.281-0.453c-0.218-0.367-0.313,0.821-0.313,0.821L227.06,399.629z"/>
		<g>
			<path fill="#FAB16A" d="M266.956,382.855c1.009,0.004,0.916,1.072,1.009,0.004c0.097-1.067-0.643-1.241,0.097-1.067
				c0.736,0.173-0.069,0.295,0.508,0.819c0.578,0.525,0.578,0.525,0.578,0.525s0.767,1.037,0.862-0.031
				c0.095-1.065,0.095-1.065,0.095-1.065l0.465-0.921c0,0,1.066,1.357,2.245,1.635c0.748,0.176,1.925,0.186,2.688,0.17
				c-6.766-5.947-15.625-8.866-24.461-8.259l0.633,1.021l-2.248,4.84c0,0-1.432,1.222-1.263,1.495
				c0.169,0.273,2.313,3.733,2.313,3.733l4.646,2.415l2.928,0.454c0,0,0.498-0.056,0.693-0.43c0.195-0.372,1.142-1.084,1.063-1.414
				c-0.077-0.329-0.04-1.235-0.04-1.235s-0.1-0.819,0.266-1.045c0.365-0.227,1.33-0.7,1.33-0.7l1.656,1.859l3.712-0.521
				c0,0-0.108-1.192-1.017-1.639c-0.905-0.446-1.927-1.074-1.459-1.743c0.47-0.67,1.426-1.136,1.426-1.136s0.151-0.345,0.283,0.457
				c0.132,0.8-0.728-0.183,0.132,0.8C266.956,382.855,265.945,382.852,266.956,382.855z"/>
			<path fill="#FAB16A" d="M234.354,382.542C234.14,382.684,234.285,382.67,234.354,382.542L234.354,382.542z"/>
			<path fill="#FAB16A" d="M244.529,379.61c2.769-2.853,3.042-3.022,3.315-3.19c0.273-0.17,1.149-0.586,1.57-0.721
				c0.42-0.134,1.336-0.195,1.336-0.195l-0.186-0.804c-3.513,0.291-7.014,1.143-10.375,2.58c0.111,0.101,0.264,0.349,0.493,0.803
				c1.116,2.208,1.511,2.845,1.511,2.845s0.317,0.309,1.081-0.289C244.036,380.041,241.757,382.461,244.529,379.61z"/>
			<path fill="#FAB16A" d="M238.607,380.06c0.986-0.942,1.144-2.222,1.334-2.668c-1.313,0.575-2.604,1.242-3.867,2.004
				c-0.58,0.895-2.288,2.204-1.802,2.785c0.133,0.159,0.123,0.281,0.081,0.361c0.145-0.096,0.459-0.264,1.082-0.519
				C237.549,381.16,236.93,381.661,238.607,380.06z"/>
		</g>
		<g>
			<path fill="#FAB16A" d="M270.337,437.038L270.337,437.038c0.23-0.137,0.461-0.273,0.689-0.415
				c0.554-0.345,1.096-0.705,1.625-1.077C271.878,436.086,270.337,437.038,270.337,437.038z"/>
			<path fill="#FAB16A" d="M273.813,432.171c-0.604,0.248-0.304,2.755-0.995,3.257c0,0-0.001,0.002-0.003,0.002
				c1.979-1.406,3.765-2.992,5.343-4.724l0,0c-0.036,0.043-2.257-0.458-2.889,0.559
				C274.638,432.281,274.416,431.923,273.813,432.171z"/>
		</g>
		<g>
			<path fill="#FAB16A" d="M243.214,440.074c-0.008-0.01-0.017-0.021-0.025-0.031C243.197,440.054,243.206,440.063,243.214,440.074
				L243.214,440.074z"/>
			<path fill="#FAB16A" d="M243.144,439.99c0.015,0.018,0.03,0.035,0.045,0.053C243.171,440.022,243.155,440.003,243.144,439.99z"/>
			<path fill="#FAB16A" d="M243.116,439.958c0,0,0.01,0.011,0.027,0.032C243.134,439.978,243.126,439.969,243.116,439.958z"/>
			<path fill="#FAB16A" d="M243.233,438.292c-0.241-0.136-0.412,0.184-0.568,1.129c0.123,0.145,0.27,0.319,0.451,0.537
				c0,0-0.779-1.684,0.229-0.815c0.084,0.073,0.149,0.138,0.205,0.199c0.015-0.03,0.029-0.058,0.05-0.088
				c0.203-0.294,0.187-0.074,0.101,0.281c0.107,0.188,0.026,0.266-0.065,0.248c-0.037,0.126-0.076,0.26-0.114,0.387
				c0.227,0.07,0.455,0.138,0.684,0.203c-0.081-0.211-0.159-0.231-0.243-0.341c-0.094-0.128-0.041-0.315,0.001-0.467
				c0.043-0.15,0.149-0.062,0.412,0.086c0.262,0.148,0.155,0.06,0.35,0.263c0.194,0.204-0.071,0.216,0.057,0.479
				c0.029,0.057,0.039,0.104,0.04,0.146c0.066,0.02,0.133,0.036,0.201,0.054l0.145-0.954c0,0-0.418-0.841-0.608-0.981
				C244.371,438.518,243.51,438.448,243.233,438.292z"/>
			<path fill="#FAB16A" d="M243.55,439.342c-0.142,0.266-0.022,0.419,0.085,0.441c0.023-0.088,0.046-0.171,0.065-0.248
				C243.669,439.48,243.617,439.415,243.55,439.342z"/>
			<path fill="#FAB16A" d="M241.744,438.238c0,0-0.081,0.644-0.166,1.27c0.338,0.127,0.677,0.249,1.02,0.366
				c0.022-0.165,0.045-0.314,0.067-0.453c-0.541-0.646-0.543-0.646-0.543-0.646L241.744,438.238z"/>
		</g>
		<path opacity="0.1" d="M240.515,377.146c9.191,2.505,17.709,8.61,23.346,17.708c9.544,15.406,7.731,34.394-3.332,46.028
			c3.62-0.791,7.17-2.199,10.498-4.26c15.742-9.754,20.597-30.422,10.845-46.164C273.085,376.277,255.437,370.935,240.515,377.146z"
			/>
	</g>
	<g id="Venus">
		<circle fill="#F15A24" cx="445.744" cy="195.102" r="10.78"/>
		<path fill="#B34318" d="M445.826,195.714l-0.341-1.031c0,0-0.436,0.327-0.605,0.375c-0.38,0.107-0.473-0.411-1.573,0.109
			c-0.193,0.091-1.59,1.85-1.707,1.923s-0.161,0.262-0.893,0.391c-0.73,0.128-1.542-0.396-1.593-0.742
			c-0.054-0.346-0.329-0.398-0.323-0.565c0.004-0.165-0.416-2.505-0.663-2.768c-0.259-0.276-1.318-0.738-1.318-0.738l-1.444-0.479
			l0,0c-0.762,2.719-0.461,5.727,1.065,8.341c0,0,0.402-0.453,0.476-0.639c0.053-0.137,0.052-0.523,0.196-0.554
			c0.224-0.049,0.587,0.608,0.627,0.664c0.63,0.907,1.271,0.683,1.642,0.468c0.364-0.209,0.455-1.619,0.455-1.619l0.168-0.603
			c0,0-0.045-0.081,0.196-0.122c0.241-0.042,0.69,0.072,0.69,0.072s-0.022,0.487,0.251,0.317c0.272-0.169,0.546-0.338,0.546-0.338
			s0.291,0.21,0.35,0.304c0.057,0.092,0.367,0.332,0.48,0.426c0.111,0.093,0.285,0.633,0.285,0.633l0.338,0.547l0.193,0.312
			c0,0-0.012,0.332,0.218,0.351c0.228,0.021,0.608,0.109,0.608,0.109l1.167-0.033l0.977,0.79l-0.304,0.705l1.085,1.751l0.146,1.712
			l0.453-0.072l0,0l0.298-1.385l-0.074-1.252l0.473-1.157l0.766-1.338l-0.576-2.02c0,0-0.924-2.372-1.366-2.477
			C446.751,195.977,445.826,195.714,445.826,195.714z"/>
		<path fill="#B34318" d="M454.414,191.19c0,0-0.279-0.867-0.221-0.744c0.055,0.124,0.055,0.124,0.055,0.124l-0.24,0.012
			l-0.239,0.016l0.149,0.513c0,0,0.265-0.415,0.362-0.395c0.099,0.02,0.265-0.53-0.02-0.652s-0.465-0.174-0.465-0.174
			s-0.454-1.413-0.631-0.853c-0.176,0.56-0.09,0.405-0.176,0.56c-0.087,0.156-0.39,0.3-0.39,0.3l-0.273-0.441l0.01-0.318
			c0,0-0.203-0.396,0.146-0.158c0.348,0.237,0.382,0.483,0.705,0.649s0.82,0.068,0.703-0.161c-0.046-0.089-0.036-0.203-0.039-0.323
			c-0.005-0.187-0.038-0.387-0.351-0.533c-0.517-0.24-0.042-0.132-0.763-0.185c-0.721-0.052-1.017,0.146-1.017,0.146l-0.487,0.161
			l1.238,0.01l0.318,0.085l0.234-0.161c0,0,0.22-0.055,0.266-0.013c0.046,0.042,0.387,0.38,0.387,0.38l0.582,0.815l0.514,0.334
			l0.568,0.429c0,0,0.114,0.153-0.064,0.223c-0.179,0.071-0.076,0.237-0.388,0.207C454.577,191.012,454.414,191.19,454.414,191.19z"
			/>
		<path fill="#B34318" d="M439.866,196.72c0,0,0.145-0.569,0.136-0.484c-0.011,0.086-0.011,0.086-0.011,0.086l-0.154-0.054
			l-0.155-0.051l-0.097,0.333c0,0,0.318-0.172,0.372-0.136c0.055,0.036,0.361-0.239,0.228-0.381
			c-0.133-0.141-0.227-0.216-0.227-0.216s0.237-0.93-0.079-0.651s-0.205,0.211-0.316,0.279c-0.111,0.069-0.354,0.076-0.354,0.076
			l-0.01-0.323l0.124-0.181c0,0,0.02-0.279,0.149-0.056c0.13,0.225,0.061,0.375,0.202,0.552c0.141,0.177,0.487,0.245,0.499,0.084
			c0.004-0.063,0.052-0.127,0.095-0.198c0.065-0.107,0.118-0.231-0.023-0.395c-0.234-0.268,0.021-0.086-0.409-0.297
			c-0.431-0.212-0.688-0.172-0.688-0.172l-0.364-0.03l0.771,0.317l0.168,0.129l0.205-0.035c0,0,0.158,0.023,0.171,0.06
			c0.014,0.036,0.103,0.316,0.103,0.316l0.062,0.616l0.2,0.322l0.197,0.39c0,0,0.016,0.117-0.121,0.113
			c-0.139-0.004-0.135,0.117-0.319,0.021C440.033,196.659,439.866,196.72,439.866,196.72z"/>
		<path fill="#B34318" d="M437.286,192.372c0,0,0.011,0.278,0.164,0.265c0.152-0.014,0.504-0.029,0.504-0.029
			s-0.323-0.451-0.29-0.47c0.031-0.019-0.021-0.026-0.09-0.145c-0.069-0.119-0.101,0.263-0.101,0.263L437.286,192.372z"/>
		<g>
			<path fill="#B34318" d="M450.113,186.98c0.323,0.001,0.294,0.344,0.323,0.001c0.031-0.343-0.206-0.399,0.031-0.343
				c0.237,0.055-0.021,0.095,0.164,0.264c0.185,0.168,0.185,0.168,0.185,0.168s0.247,0.333,0.277-0.01
				c0.03-0.343,0.03-0.343,0.03-0.343l0.149-0.296c0,0,0.343,0.437,0.723,0.526c0.24,0.055,0.617,0.059,0.863,0.054
				c-2.175-1.913-5.022-2.851-7.862-2.656l0.204,0.329l-0.725,1.556c0,0-0.46,0.393-0.405,0.48c0.054,0.088,0.743,1.201,0.743,1.201
				l1.492,0.776l0.941,0.146c0,0,0.161-0.019,0.224-0.138c0.064-0.12,0.367-0.348,0.343-0.455c-0.025-0.106-0.013-0.397-0.013-0.397
				s-0.032-0.264,0.085-0.337c0.117-0.072,0.429-0.225,0.429-0.225l0.531,0.598l1.193-0.167c0,0-0.035-0.384-0.326-0.528
				s-0.619-0.345-0.47-0.56c0.151-0.216,0.459-0.366,0.459-0.366s0.048-0.11,0.092,0.147c0.042,0.257-0.234-0.058,0.042,0.257
				C450.113,186.98,449.787,186.979,450.113,186.98z"/>
			<path fill="#B34318" d="M439.63,186.879C439.563,186.924,439.608,186.92,439.63,186.879L439.63,186.879z"/>
			<path fill="#B34318" d="M442.902,185.936c0.891-0.917,0.979-0.971,1.065-1.025c0.087-0.054,0.37-0.188,0.506-0.232
				c0.134-0.043,0.429-0.064,0.429-0.064l-0.06-0.256c-1.129,0.093-2.256,0.367-3.335,0.829c0.036,0.031,0.085,0.112,0.158,0.258
				c0.359,0.71,0.485,0.914,0.485,0.914s0.103,0.1,0.348-0.092C442.743,186.075,442.011,186.854,442.902,185.936z"/>
			<path fill="#B34318" d="M440.998,186.081c0.317-0.302,0.369-0.714,0.43-0.857c-0.422,0.184-0.838,0.399-1.244,0.644
				c-0.187,0.288-0.734,0.709-0.579,0.896c0.044,0.051,0.039,0.091,0.025,0.116c0.048-0.03,0.148-0.085,0.349-0.167
				C440.658,186.435,440.46,186.597,440.998,186.081z"/>
		</g>
		<g>
			<path fill="#D4A15A" d="M451.198,204.4L451.198,204.4c0.075-0.044,0.149-0.088,0.223-0.134c0.179-0.111,0.353-0.227,0.522-0.346
				C451.695,204.093,451.198,204.4,451.198,204.4z"/>
			<path fill="#B34318" d="M452.316,202.834c-0.193,0.08-0.098,0.886-0.319,1.047l-0.001,0c0.636-0.453,1.21-0.962,1.718-1.518l0,0
				c-0.013,0.013-0.726-0.148-0.93,0.179C452.581,202.87,452.51,202.756,452.316,202.834z"/>
		</g>
		<g>
			<polygon fill="#D4A15A" points="442.479,205.375 442.471,205.365 442.479,205.375 			"/>
			<path fill="#D4A15A" d="M442.456,205.348c0.005,0.006,0.01,0.012,0.015,0.017C442.466,205.358,442.461,205.352,442.456,205.348z"
				/>
			<path fill="#D4A15A" d="M442.446,205.338c0,0,0.005,0.002,0.01,0.01C442.454,205.344,442.451,205.341,442.446,205.338z"/>
			<path fill="#B34318" d="M442.485,204.802c-0.077-0.043-0.133,0.06-0.184,0.364c0.04,0.046,0.087,0.102,0.145,0.173
				c0,0-0.249-0.541,0.074-0.263c0.027,0.023,0.049,0.045,0.067,0.064c0.004-0.009,0.009-0.019,0.015-0.028
				c0.065-0.096,0.061-0.025,0.032,0.09c0.035,0.06,0.01,0.085-0.021,0.079c-0.012,0.041-0.024,0.084-0.036,0.124
				c0.072,0.023,0.146,0.045,0.221,0.066c-0.026-0.068-0.053-0.074-0.079-0.109c-0.031-0.042-0.014-0.102,0.001-0.15
				c0.013-0.048,0.047-0.02,0.132,0.027c0.084,0.048,0.049,0.02,0.112,0.085c0.063,0.064-0.023,0.07,0.019,0.154
				c0.01,0.018,0.013,0.033,0.013,0.047c0.021,0.005,0.042,0.011,0.064,0.017l0.047-0.307c0,0-0.135-0.271-0.195-0.315
				C442.851,204.875,442.575,204.853,442.485,204.802z"/>
			<path fill="#D4A15A" d="M442.588,205.14c-0.047,0.085-0.008,0.134,0.026,0.142c0.008-0.029,0.016-0.055,0.021-0.079
				C442.625,205.185,442.609,205.164,442.588,205.14z"/>
			<path fill="#B34318" d="M442.007,204.786c0,0-0.026,0.207-0.054,0.408c0.108,0.041,0.218,0.08,0.328,0.118
				c0.006-0.054,0.014-0.102,0.021-0.146c-0.173-0.208-0.173-0.208-0.173-0.208L442.007,204.786z"/>
		</g>
		
			<ellipse transform="matrix(0.8501 -0.5267 0.5267 0.8501 -34.2854 265.9399)" fill="#B34318" cx="449.959" cy="193.189" rx="1.369" ry="1.923"/>
		
			<ellipse transform="matrix(0.8502 -0.5265 0.5265 0.8502 -34.872 262.5808)" fill="#B34318" cx="443.938" cy="192.563" rx="1.028" ry="1.065"/>
		
			<ellipse transform="matrix(0.85 -0.5267 0.5267 0.85 -35.6103 260.659)" fill="#B34318" cx="439.943" cy="192.865" rx="1.778" ry="1.818"/>
		
			<ellipse transform="matrix(0.8502 -0.5265 0.5265 0.8502 -37.0652 263.5385)" fill="#B34318" cx="444.569" cy="196.902" rx="2.279" ry="2.239"/>
		
			<ellipse transform="matrix(0.8501 -0.5266 0.5266 0.8501 -37.8138 266.7477)" fill="#B34318" cx="449.705" cy="199.804" rx="1.758" ry="1.38"/>
		
			<ellipse transform="matrix(0.8503 -0.5263 0.5263 0.8503 -38.9065 268.3844)" fill="#B34318" cx="452.318" cy="202.583" rx="0.5" ry="0.556"/>
		<path opacity="0.2" d="M441.612,185.145c2.955,0.805,5.692,2.768,7.505,5.693c3.067,4.953,2.485,11.058-1.072,14.797
			c1.165-0.254,2.307-0.708,3.376-1.37c5.062-3.136,6.623-9.78,3.487-14.841C452.082,184.865,446.407,183.147,441.612,185.145z"/>
	</g>
	<g id="Merkurius">
		<circle fill="#F12473" cx="110.881" cy="355.046" r="5.164"/>
		<path fill="#B3184E" d="M110.92,355.339l-0.163-0.494c0,0-0.208,0.158-0.29,0.181c-0.182,0.052-0.226-0.198-0.753,0.051
			c-0.093,0.044-0.762,0.888-0.818,0.923c-0.056,0.035-0.077,0.125-0.428,0.187c-0.35,0.061-0.738-0.19-0.763-0.354
			c-0.025-0.166-0.157-0.192-0.154-0.271c0.002-0.081-0.2-1.2-0.318-1.327c-0.124-0.132-0.631-0.354-0.631-0.354l-0.691-0.23l0,0
			c-0.366,1.302-0.222,2.743,0.509,3.996c0,0,0.193-0.216,0.228-0.307c0.025-0.065,0.025-0.25,0.095-0.264
			c0.107-0.024,0.281,0.29,0.301,0.318c0.301,0.434,0.609,0.325,0.785,0.223c0.175-0.1,0.22-0.774,0.22-0.774l0.08-0.29
			c0,0-0.021-0.038,0.094-0.058c0.115-0.022,0.331,0.035,0.331,0.035s-0.011,0.231,0.12,0.15c0.13-0.08,0.261-0.161,0.261-0.161
			s0.14,0.101,0.167,0.146c0.027,0.043,0.176,0.159,0.229,0.202c0.054,0.046,0.138,0.305,0.138,0.305l0.163,0.263l0.093,0.149
			c0,0-0.006,0.158,0.104,0.168c0.108,0.009,0.29,0.051,0.29,0.051l0.559-0.016l0.469,0.381l-0.146,0.335l0.52,0.839l0.069,0.82
			l0.218-0.033l0,0l0.142-0.665l-0.034-0.6l0.225-0.553l0.367-0.642l-0.276-0.968c0,0-0.442-1.136-0.655-1.186
			C111.363,355.465,110.92,355.339,110.92,355.339z"/>
		<path fill="#B3184E" d="M115.034,353.173c0,0-0.133-0.415-0.106-0.357c0.027,0.06,0.027,0.06,0.027,0.06l-0.115,0.006
			l-0.114,0.008l0.07,0.246c0,0,0.128-0.199,0.173-0.189c0.047,0.009,0.127-0.254-0.009-0.313c-0.136-0.057-0.224-0.085-0.224-0.085
			s-0.217-0.677-0.3-0.407c-0.084,0.27-0.043,0.195-0.084,0.27c-0.042,0.073-0.188,0.143-0.188,0.143l-0.131-0.211l0.006-0.152
			c0,0-0.098-0.19,0.069-0.076c0.167,0.114,0.183,0.231,0.339,0.313c0.153,0.077,0.392,0.031,0.336-0.079
			c-0.021-0.043-0.018-0.097-0.019-0.155c-0.002-0.088-0.018-0.185-0.168-0.254c-0.248-0.115-0.02-0.063-0.365-0.088
			c-0.346-0.026-0.488,0.068-0.488,0.068l-0.232,0.077l0.593,0.005l0.152,0.04l0.112-0.075c0,0,0.105-0.027,0.128-0.007
			c0.021,0.021,0.185,0.181,0.185,0.181l0.279,0.393l0.246,0.159l0.272,0.205c0,0,0.056,0.075-0.03,0.107
			c-0.086,0.033-0.037,0.113-0.186,0.1C115.112,353.086,115.034,353.173,115.034,353.173z"/>
		<path fill="#B3184E" d="M108.066,355.821c0,0,0.069-0.272,0.064-0.232c-0.005,0.041-0.005,0.041-0.005,0.041l-0.074-0.026
			l-0.073-0.023l-0.046,0.159c0,0,0.152-0.081,0.177-0.065c0.027,0.018,0.173-0.114,0.109-0.182
			c-0.063-0.068-0.108-0.104-0.108-0.104s0.113-0.446-0.039-0.312c-0.151,0.133-0.099,0.101-0.151,0.133
			c-0.054,0.034-0.168,0.038-0.168,0.038l-0.005-0.155l0.059-0.088c0,0,0.01-0.133,0.071-0.026c0.063,0.108,0.03,0.181,0.098,0.266
			c0.066,0.084,0.234,0.117,0.238,0.039c0.002-0.03,0.025-0.062,0.045-0.094c0.032-0.051,0.057-0.11-0.011-0.189
			c-0.112-0.128,0.011-0.04-0.196-0.143c-0.206-0.102-0.328-0.081-0.328-0.081l-0.175-0.015l0.368,0.151l0.081,0.063l0.097-0.018
			c0,0,0.077,0.011,0.083,0.029c0.006,0.017,0.048,0.15,0.048,0.15l0.03,0.295l0.095,0.155l0.094,0.186c0,0,0.009,0.057-0.058,0.056
			c-0.067-0.002-0.065,0.055-0.152,0.009C108.146,355.792,108.066,355.821,108.066,355.821z"/>
		<path fill="#B3184E" d="M106.83,353.738c0,0,0.005,0.134,0.079,0.127c0.073-0.007,0.242-0.014,0.242-0.014
			s-0.155-0.216-0.14-0.225c0.016-0.011-0.009-0.013-0.043-0.07c-0.034-0.057-0.048,0.126-0.048,0.126L106.83,353.738z"/>
		<g>
			<path fill="#B3184E" d="M112.974,351.155c0.155,0,0.142,0.166,0.155,0c0.015-0.164-0.099-0.191,0.015-0.164
				c0.115,0.028-0.01,0.047,0.079,0.127c0.089,0.081,0.089,0.081,0.089,0.081s0.118,0.16,0.133-0.005
				c0.015-0.164,0.015-0.164,0.015-0.164l0.071-0.142c0,0,0.164,0.209,0.345,0.251c0.117,0.028,0.297,0.029,0.415,0.026
				c-1.042-0.916-2.406-1.365-3.768-1.272l0.099,0.157l-0.347,0.746c0,0-0.221,0.188-0.194,0.23
				c0.026,0.042,0.356,0.575,0.356,0.575l0.714,0.371l0.452,0.071c0,0,0.077-0.01,0.107-0.066c0.03-0.059,0.175-0.168,0.164-0.219
				c-0.013-0.051-0.007-0.191-0.007-0.191s-0.015-0.126,0.042-0.16c0.056-0.035,0.206-0.107,0.206-0.107l0.255,0.286l0.57-0.079
				c0,0-0.017-0.185-0.156-0.253c-0.139-0.068-0.296-0.167-0.224-0.268c0.073-0.104,0.219-0.177,0.219-0.177s0.023-0.052,0.044,0.07
				c0.02,0.124-0.113-0.028,0.02,0.124C112.974,351.155,112.818,351.154,112.974,351.155z"/>
			<path fill="#B3184E" d="M107.953,351.105C107.921,351.129,107.942,351.126,107.953,351.105L107.953,351.105z"/>
			<path fill="#B3184E" d="M109.52,350.654c0.426-0.439,0.468-0.465,0.51-0.491c0.042-0.025,0.178-0.089,0.244-0.11
				c0.063-0.021,0.205-0.029,0.205-0.029l-0.029-0.123c-0.541,0.045-1.08,0.176-1.597,0.396c0.016,0.015,0.04,0.053,0.075,0.123
				c0.173,0.34,0.234,0.439,0.234,0.439s0.048,0.047,0.166-0.045C109.444,350.722,109.093,351.096,109.52,350.654z"/>
			<path fill="#B3184E" d="M108.607,350.724c0.152-0.144,0.177-0.341,0.206-0.409c-0.202,0.087-0.402,0.19-0.594,0.309
				c-0.089,0.138-0.353,0.34-0.278,0.429c0.021,0.024,0.019,0.043,0.012,0.054c0.022-0.014,0.07-0.039,0.167-0.078
				C108.445,350.894,108.351,350.972,108.607,350.724z"/>
		</g>
		<g>
			<path fill="#D46E5A" d="M113.494,359.5L113.494,359.5c0.036-0.021,0.072-0.043,0.106-0.064c0.086-0.053,0.169-0.108,0.25-0.165
				C113.732,359.352,113.494,359.5,113.494,359.5z"/>
			<path fill="#B3184E" d="M114.03,358.75c-0.093,0.037-0.046,0.425-0.153,0.502h0c0.304-0.217,0.579-0.461,0.823-0.727l0,0
				c-0.007,0.005-0.348-0.071-0.445,0.086C114.157,358.768,114.123,358.714,114.03,358.75z"/>
		</g>
		<g>
			<polygon fill="#D46E5A" points="109.318,359.967 109.314,359.962 109.318,359.967 			"/>
			<path fill="#D46E5A" d="M109.307,359.954c0.002,0.002,0.004,0.006,0.007,0.008C109.311,359.958,109.308,359.955,109.307,359.954z
				"/>
			<path fill="#D46E5A" d="M109.303,359.95c0,0,0.001,0,0.004,0.004C109.307,359.953,109.304,359.95,109.303,359.95z"/>
			<path fill="#B3184E" d="M109.321,359.691c-0.037-0.02-0.063,0.029-0.089,0.175c0.02,0.021,0.042,0.049,0.071,0.084
				c0,0-0.121-0.26,0.035-0.126c0.013,0.01,0.023,0.021,0.032,0.029c0.003-0.004,0.004-0.008,0.008-0.014
				c0.03-0.045,0.029-0.011,0.016,0.043c0.017,0.03,0.004,0.041-0.01,0.04c-0.005,0.019-0.012,0.039-0.018,0.06
				c0.035,0.011,0.07,0.021,0.105,0.031c-0.013-0.034-0.024-0.036-0.037-0.054c-0.014-0.019-0.006-0.048,0-0.071
				c0.007-0.023,0.022-0.01,0.064,0.013c0.041,0.023,0.024,0.009,0.054,0.041c0.029,0.031-0.012,0.032,0.008,0.074
				c0.004,0.008,0.005,0.016,0.006,0.021c0.01,0.003,0.02,0.006,0.031,0.009l0.022-0.146c0,0-0.064-0.13-0.094-0.152
				C109.496,359.727,109.364,359.717,109.321,359.691z"/>
			<path fill="#D46E5A" d="M109.369,359.854c-0.022,0.041-0.002,0.065,0.013,0.069c0.003-0.015,0.007-0.027,0.01-0.04
				C109.387,359.875,109.38,359.865,109.369,359.854z"/>
			<path fill="#B3184E" d="M109.091,359.684c0,0-0.012,0.1-0.026,0.196c0.052,0.019,0.104,0.038,0.157,0.056
				c0.003-0.025,0.007-0.049,0.01-0.069c-0.082-0.099-0.082-0.099-0.082-0.099L109.091,359.684z"/>
		</g>
		
			<ellipse transform="matrix(0.8496 -0.5275 0.5275 0.8496 -169.8059 112.817)" fill="#B3184E" cx="112.9" cy="354.13" rx="0.656" ry="0.92"/>
		
			<ellipse transform="matrix(0.8499 -0.5269 0.5269 0.8499 -169.928 111.0742)" fill="#B3184E" cx="110.017" cy="353.831" rx="0.492" ry="0.51"/>
		
			<ellipse transform="matrix(0.8501 -0.5266 0.5266 0.8501 -170.2061 109.99)" fill="#B3184E" cx="108.103" cy="353.975" rx="0.852" ry="0.871"/>
		
			<ellipse transform="matrix(0.8502 -0.5265 0.5265 0.8502 -170.8616 111.412)" fill="#B3184E" cx="110.319" cy="355.908" rx="1.092" ry="1.072"/>
		
			<ellipse transform="matrix(0.8498 -0.5271 0.5271 0.8498 -171.3943 113.112)" fill="#B3184E" cx="112.779" cy="357.299" rx="0.842" ry="0.66"/>
		
			<ellipse transform="matrix(0.8504 -0.5261 0.5261 0.8504 -171.6314 113.6492)" fill="#B3184E" cx="114.031" cy="358.63" rx="0.239" ry="0.266"/>
		<path opacity="0.2" d="M108.902,350.276c1.416,0.386,2.727,1.325,3.596,2.728c1.469,2.371,1.191,5.298-0.514,7.087
			c0.559-0.12,1.105-0.339,1.617-0.655c2.424-1.502,3.173-4.685,1.67-7.109C113.917,350.142,111.2,349.321,108.902,350.276z"/>
	</g>
	<g id="Moon">
		<path fill="#F6863C" d="M222.053,459.504c0,0,0.004,0.103,0.045,0.221c0.318,0.011,0.842-0.184,1.211-0.346
			c-0.027-0.164-0.086-0.215-0.086-0.215S222.609,459.441,222.053,459.504z"/>
		<path fill="#F6863C" d="M215.785,443.14c0,0-0.007-0.124-0.067-0.241c-0.431,0.209-1.292,0.789-1.787,1.244
			c0.04,0.183,0.278,0.227,0.278,0.227S215.034,443.602,215.785,443.14z"/>
		<circle fill="#FCC59C" cx="219.817" cy="450.989" r="8.901"/>
		<g>
			<circle fill="#F89F67" cx="217.152" cy="451.488" r="1.667"/>
			<path fill="#F6863C" d="M216.194,452.259c-0.454-0.722-0.237-1.674,0.484-2.128c0.306-0.192,0.653-0.265,0.986-0.229
				c-0.453-0.146-0.966-0.099-1.4,0.175c-0.779,0.49-1.013,1.52-0.522,2.299c0.49,0.778,1.519,1.013,2.298,0.522
				c0.02-0.013,0.04-0.026,0.059-0.039C217.415,453.148,216.602,452.907,216.194,452.259z"/>
		</g>
		<g>
			<circle fill="#F89F67" cx="223.514" cy="451.937" r="2.085"/>
			<path fill="#F6863C" d="M222.316,452.9c-0.568-0.903-0.297-2.095,0.605-2.662c0.383-0.241,0.816-0.33,1.234-0.285
				c-0.566-0.184-1.208-0.124-1.751,0.219c-0.974,0.613-1.267,1.9-0.654,2.875c0.612,0.974,1.9,1.267,2.874,0.653
				c0.025-0.016,0.049-0.032,0.074-0.049C223.842,454.012,222.827,453.712,222.316,452.9z"/>
		</g>
		<g>
			<circle fill="#F89F67" cx="219.361" cy="445.742" r="0.969"/>
			<path fill="#F6863C" d="M218.805,446.19c-0.264-0.42-0.138-0.974,0.282-1.237c0.177-0.112,0.379-0.153,0.574-0.133
				c-0.265-0.085-0.562-0.058-0.814,0.102c-0.453,0.285-0.589,0.884-0.305,1.336c0.285,0.453,0.884,0.589,1.336,0.304
				c0.011-0.007,0.023-0.015,0.034-0.022C219.515,446.707,219.042,446.567,218.805,446.19z"/>
		</g>
		<g>
			<circle fill="#F89F67" cx="223.939" cy="445.799" r="0.969"/>
			<path fill="#F6863C" d="M223.382,446.248c-0.264-0.42-0.137-0.975,0.283-1.238c0.178-0.112,0.379-0.153,0.572-0.132
				c-0.263-0.086-0.561-0.058-0.814,0.102c-0.452,0.284-0.589,0.883-0.304,1.336s0.884,0.589,1.336,0.304
				c0.012-0.008,0.023-0.016,0.034-0.022C224.091,446.765,223.619,446.625,223.382,446.248z"/>
		</g>
		<g>
			<circle fill="#F89F67" cx="221.86" cy="443.401" r="0.482"/>
			<path fill="#F6863C" d="M221.583,443.624c-0.131-0.209-0.068-0.484,0.141-0.616c0.087-0.055,0.188-0.076,0.285-0.066
				c-0.131-0.041-0.279-0.027-0.405,0.051c-0.226,0.143-0.293,0.44-0.151,0.666c0.142,0.225,0.439,0.292,0.665,0.15
				c0.005-0.004,0.011-0.008,0.017-0.011C221.936,443.881,221.701,443.812,221.583,443.624z"/>
		</g>
		<g>
			<circle fill="#F89F67" cx="213.538" cy="448.638" r="1.077"/>
			<path fill="#F6863C" d="M212.918,449.137c-0.293-0.467-0.153-1.082,0.313-1.375c0.198-0.125,0.422-0.171,0.637-0.148
				c-0.292-0.094-0.624-0.063-0.904,0.113c-0.503,0.317-0.655,0.982-0.338,1.485c0.316,0.504,0.982,0.655,1.485,0.339
				c0.013-0.009,0.025-0.018,0.038-0.026C213.708,449.711,213.182,449.556,212.918,449.137z"/>
		</g>
		<g>
			<circle fill="#F89F67" cx="217.982" cy="457.724" r="0.618"/>
			<path fill="#F6863C" d="M217.627,458.009c-0.168-0.268-0.087-0.62,0.18-0.788c0.113-0.071,0.242-0.098,0.365-0.085
				c-0.167-0.054-0.358-0.036-0.519,0.065c-0.289,0.181-0.375,0.563-0.193,0.852c0.182,0.288,0.563,0.375,0.851,0.193
				c0.008-0.005,0.016-0.01,0.023-0.014C218.079,458.338,217.778,458.249,217.627,458.009z"/>
		</g>
		<g>
			
				<ellipse transform="matrix(-0.3438 0.939 -0.939 -0.3438 732.0682 395.9075)" fill="#F89F67" cx="227.71" cy="453.727" rx="0.618" ry="0.409"/>
			<path fill="#F6863C" d="M227.832,453.29c0.196,0.071,0.267,0.369,0.158,0.666c-0.045,0.126-0.116,0.231-0.197,0.305
				c0.123-0.075,0.235-0.216,0.3-0.395c0.118-0.319,0.04-0.643-0.17-0.72c-0.213-0.078-0.479,0.119-0.597,0.439
				c-0.003,0.009-0.005,0.016-0.009,0.025C227.439,453.366,227.656,453.225,227.832,453.29z"/>
		</g>
		<g>
			
				<ellipse transform="matrix(0.1925 0.9813 -0.9813 0.1925 617.2424 158.0755)" fill="#F89F67" cx="212.568" cy="454.099" rx="0.618" ry="0.407"/>
			<path fill="#F6863C" d="M212.447,453.662c0.205-0.04,0.42,0.179,0.48,0.488c0.026,0.131,0.02,0.258-0.012,0.363
				c0.066-0.128,0.089-0.307,0.053-0.492c-0.066-0.335-0.298-0.572-0.52-0.528c-0.221,0.043-0.347,0.35-0.281,0.685
				c0.001,0.009,0.003,0.018,0.005,0.025C212.151,453.932,212.263,453.698,212.447,453.662z"/>
		</g>
		<path opacity="0.1" d="M221.222,442.21c1.725,1.85,2.793,4.42,2.793,7.261c0,4.81-3.064,8.843-7.187,9.921
			c0.927,0.327,1.925,0.506,2.964,0.506c4.916,0,8.901-3.985,8.901-8.901C228.694,446.567,225.458,442.894,221.222,442.21z"/>
	</g>
</g>
</svg>
